<svg xmlns="http://www.w3.org/2000/svg" width="512" height="512" viewBox="0 0 490 490" fill="#fff" xmlns:v="https://vecta.io/nano"><path d="M60.44 233.482l-11.545-37.267-11.544 37.267H0l30.22 23.031-11.544 37.272 30.219-23.041 30.22 23.041-11.544-37.272 30.22-23.031zm98.052 0l-11.544-37.267-11.545 37.267H98.052l30.22 23.031-11.544 37.272 30.22-23.041 30.22 23.041-11.545-37.272 30.22-23.031zm98.052 0L245 196.215l-11.544 37.267h-37.352l30.22 23.031-11.544 37.272L245 270.744l30.22 23.041-11.544-37.272 30.219-23.031zm98.052 0l-11.544-37.267-11.544 37.267h-37.351l30.22 23.031-11.545 37.272 30.22-23.041 30.22 23.041-11.544-37.272 30.22-23.031zm86.509-37.267l-11.545 37.267h-37.351l30.22 23.031-11.544 37.272 30.22-23.041 30.219 23.041-11.544-37.272L490 233.482h-37.351z"/></svg>