<svg xmlns="http://www.w3.org/2000/svg" viewBox="0 0 356.54 491.99" xmlns:v="https://vecta.io/nano"><path d="M136.22 267h-10.37c-2.67-11-13.3-20.54-26-20.54A26.59 26.59 0 1 0 125.77 279h10.45a10.44 10.44 0 0 1 10.05 10.06V365h12v-75.95A22.44 22.44 0 0 0 136.22 267zm-36.34 20.93a14.62 14.62 0 1 1 14.62-14.61 14.62 14.62 0 0 1-14.62 14.61zM201 74h9.68a9.57 9.57 0 0 1 9.6 9.51v40.61a26.35 26.35 0 0 0-22.37 26.27 26.62 26.62 0 1 0 34.37-25.47V83.5A21.58 21.58 0 0 0 210.67 62H201a9.75 9.75 0 0 1-9.72-9.61V6h-12v46.38A21.76 21.76 0 0 0 201 74zm38.12 76.39a14.62 14.62 0 1 1-14.62-14.62h0a14.64 14.64 0 0 1 14.61 14.61zm49.15.18v24.1a26.55 26.55 0 1 0 12 0v-24.1a9.46 9.46 0 0 1 9.35-9.58h36.65V129h-36.58a21.47 21.47 0 0 0-21.42 21.54h0zm20.47 50A14.62 14.62 0 1 1 294.12 186h0a14.64 14.64 0 0 1 14.62 14.59zm-89.11 47.99a26.56 26.56 0 0 0 .33-53.11h-.33a27 27 0 0 0-25 17.54h-.57c-11.89 0-21.82 9.42-21.82 21.31V364h12V234.3a9.68 9.68 0 0 1 8.77-9.51 26.78 26.78 0 0 0 26.62 23.77zm0-41.23A14.62 14.62 0 1 1 205 221.94h0a14.61 14.61 0 0 1 14.63-14.61zm3.05 67.87a26.62 26.62 0 0 0 0 53.24A26.35 26.35 0 0 0 248.57 308h35.7v-12h-35.63a26.54 26.54 0 0 0-25.96-20.8zm0 41.2a14.62 14.62 0 1 1 14.62-14.62h0a14.64 14.64 0 0 1-14.62 14.62zm-115.77-76.72A26.64 26.64 0 1 0 80.75 208H57.58a9 9 0 0 1-9.31-8.72v-4.88A21.66 21.66 0 0 0 26.46 173H6.27v12h20.19a9.65 9.65 0 0 1 9.81 9.4v4.45A21 21 0 0 0 57.17 220h24.1a26 26 0 0 0 25.64 19.69zm0-41a14.62 14.62 0 1 1-14.61 14.59 14.63 14.63 0 0 1 14.61-14.62zm-11.2-37.33c12.57 0 23.12-9.36 25.9-20.36h14a21.91 21.91 0 0 0 21.68-21.81V74a21.53 21.53 0 0 0-21.5-21.56 9.53 9.53 0 0 1-9.5-9.54V16h-12v26.88a21.54 21.54 0 0 0 21.5 21.57 9.52 9.52 0 0 1 9.5 9.54v45.19a9.89 9.89 0 0 1-9.68 9.81h-13.94a26.6 26.6 0 1 0-26 32.36zm0-41.36a14.62 14.62 0 1 1-14.61 14.62h0A14.62 14.62 0 0 1 95.71 120z"/><path d="M303 49C267.07 15.1 217.52-2.64 167.1.32A179.88 179.88 0 0 0 48.94 54C17.54 86.08.16 127.58 0 170.91c-.19 53.64 24.83 103.22 68.65 135.75A79.11 79.11 0 0 1 100.26 359h-5.11a5.65 5.65 0 0 0-5.88 5.41V453a5.89 5.89 0 0 0 5.79 6h13l2.58 7.83A36.6 36.6 0 0 0 145.49 492h65.56a36.61 36.61 0 0 0 34.81-25.17l2.58-7.83h12.95a5.9 5.9 0 0 0 5.88-5.9v-88.4a5.64 5.64 0 0 0-5.59-5.7h-5.38c3.08-21 14.23-39.15 31.23-51.93 43.85-33 69-82.4 69-135.47 0-46.46-19-90-53.51-122.58zm-47.73 322v19h-154v-19zm-20.81 92.07A24.62 24.62 0 0 1 211.05 480h-65.56a24.62 24.62 0 0 1-23.41-16.93l-1.34-4.07H235.8zM101.27 447v-45h154v45zm179.05-149.54A92.52 92.52 0 0 0 244.19 359H112.37c-3.13-25-16.24-46.86-36.57-62-40.72-30.24-64-76.22-63.8-126 .14-40.18 16.31-78.76 45.51-108.55A167.91 167.91 0 0 1 167.8 12.32c47.15-2.77 93.43 13.79 127 45.44 32.08 30.24 49.75 70.71 49.75 113.83-.01 49.27-23.42 95.19-64.23 125.87z"/></svg>