<svg xmlns="http://www.w3.org/2000/svg" height="512" width="512" xmlns:v="https://vecta.io/nano"><path d="M270.9 16.663a182.456 182.456 0 0 0-25.715-.324c-89.64 5.27-161.14 78.32-161.45 164.61-.19 53.32 25.66 100.786 66.22 130.916A85.806 85.806 0 0 1 184.581 374H173v90h17.077l3.823 10.95A30.925 30.925 0 0 0 223.22 496h30a30.925 30.925 0 0 1-29.32-21.05l-3.9-11.17V463h-17v-88h11.66a85.787 85.787 0 0 0-34.71-63.14c-40.56-30.13-66.41-77.525-66.22-130.845.305-84.91 69.541-157.047 157.17-164.352z" fill="#d4e1f4"/><path d="M213.948 277h-10.371c-2.668-11-13.293-20.536-25.965-20.536A26.586 26.586 0 1 0 203.5 289h10.449A10.436 10.436 0 0 1 224 299.056V375h12v-75.944A22.438 22.438 0 0 0 213.948 277zm-36.336 20.944a14.617 14.617 0 1 1 14.617-14.617 14.633 14.633 0 0 1-14.617 14.617zM278.724 84h9.676a9.565 9.565 0 0 1 9.6 9.513v40.608a26.364 26.364 0 0 0-22.371 26.271A26.619 26.619 0 1 0 310 134.925V93.513A21.578 21.578 0 0 0 288.4 72h-9.675A9.753 9.753 0 0 1 269 62.39V16h-12v46.39A21.767 21.767 0 0 0 278.724 84zm38.119 76.392a14.617 14.617 0 1 1-14.616-14.617 14.633 14.633 0 0 1 14.616 14.617zm49.157.191v24.1a26.562 26.562 0 1 0 12 0v-24.1a9.469 9.469 0 0 1 9.417-9.583H424v-12h-36.583A21.481 21.481 0 0 0 366 160.583zm20.472 50.017a14.617 14.617 0 1 1-14.617-14.616 14.633 14.633 0 0 1 14.617 14.616zm-89.109 47.97a26.555 26.555 0 1 0 0-53.109A26.994 26.994 0 0 0 272.388 223h-.571C259.929 223 250 232.425 250 244.314V374h12V244.314a9.685 9.685 0 0 1 8.773-9.515 26.778 26.778 0 0 0 26.59 23.771zm0-41.233a14.617 14.617 0 1 1-14.616 14.617 14.632 14.632 0 0 1 14.616-14.617zm3.05 67.869a26.62 26.62 0 0 0 0 53.24A26.344 26.344 0 0 0 326.305 318H362v-12h-35.627a26.548 26.548 0 0 0-25.96-20.794zm0 41.2a14.617 14.617 0 1 1 14.616-14.616 14.633 14.633 0 0 1-14.616 14.618zM184.644 249.69a26.642 26.642 0 0 0 0-53.283A26.871 26.871 0 0 0 158.481 218h-23.169a9.02 9.02 0 0 1-9.312-9.152V204.4a21.659 21.659 0 0 0-21.811-21.4H84v12h20.189a9.647 9.647 0 0 1 9.811 9.4v4.453A21.028 21.028 0 0 0 135.312 230h23.693a25.971 25.971 0 0 0 25.639 19.69zm0-41.027a14.616 14.616 0 1 1-14.617 14.616 14.633 14.633 0 0 1 14.617-14.616zm-11.198-37.302c12.566 0 23.118-9.361 25.9-20.361h13.977A21.9 21.9 0 0 0 235 129.19V84.017a21.533 21.533 0 0 0-21.5-21.561 9.52 9.52 0 0 1-9.5-9.562V26h-12v26.894a21.534 21.534 0 0 0 21.5 21.562 9.52 9.52 0 0 1 9.5 9.561v45.173a9.89 9.89 0 0 1-9.681 9.81H199.4a26.6 26.6 0 1 0-25.956 32.361zm0-41.357a14.617 14.617 0 1 1-14.616 14.617A14.632 14.632 0 0 1 173.446 130z" fill="#1ae5be"/><path d="M380.76 59.023c-35.96-33.91-85.513-51.652-135.929-48.694a179.87 179.87 0 0 0-118.157 53.716c-31.4 32.043-48.785 73.549-48.941 116.872-.192 53.642 24.828 103.22 68.644 135.758A79.077 79.077 0 0 1 177.993 369h-5.112a5.647 5.647 0 0 0-5.881 5.7v88.312a5.892 5.892 0 0 0 5.881 5.988h12.951l2.582 7.829A36.6 36.6 0 0 0 223.223 502h65.555a36.6 36.6 0 0 0 34.809-25.171l2.582-7.829h12.951a5.891 5.891 0 0 0 5.88-5.991V374.7a5.646 5.646 0 0 0-5.88-5.7h-5.086c3.078-21 14.228-39.152 31.227-51.934 43.855-32.972 69.008-82.4 69.008-135.466 0-46.459-19.003-90.04-53.509-122.577zM333 381v19H179v-19zm-20.808 92.067A24.617 24.617 0 0 1 288.778 490h-65.555a24.618 24.618 0 0 1-23.414-16.932L198.468 469h115.065zM179 457v-45h154v45zm179.05-149.525A92.508 92.508 0 0 0 321.924 369H190.1c-3.128-25-16.242-46.864-36.57-61.959-40.723-30.241-63.976-76.216-63.8-126 .145-40.18 16.307-78.756 45.511-108.553a167.911 167.911 0 0 1 110.29-50.156c47.148-2.769 93.427 13.784 126.993 45.436 32.076 30.241 49.745 70.717 49.745 113.832 0 49.267-23.408 95.19-64.219 125.875zM197.739 425h-4.5a6 6 0 0 0 0 12h4.5a6 6 0 1 0 0-12zm80.77 0h-58.741a6 6 0 0 0 0 12h58.741a6 6 0 0 0 0-12z" fill="#0635c9"/></svg>