<svg xmlns="http://www.w3.org/2000/svg" width="512" height="512" fill="#00722a" xmlns:v="https://vecta.io/nano"><path d="M411.997 58.094l55.862 55.861 28.284-28.284-84.146-84.146-84.853 84.853 28.285 28.284zm-19.871 118.351V318h40V176.702l35.733 35.733 28.284-28.284-84.146-84.146-84.853 84.853 28.285 28.284zM392 357v39h-83v38h-43V327.964l-68-30V199c0-33.084-26.916-60-60-60H92v.1c-18.792 1.06-35.995 10.837-46.516 26.618L0 233.944V319h40v-72.944l32-48.001V512h40V179h26c11.028 0 20 8.972 20 20v125.036l68 30V472h-73v40h113v-38h83v-38h83v-39h80v-40H392zM141 120c33.084 0 60-26.916 60-60S174.084 0 141 0 81 26.916 81 60s26.916 60 60 60zm0-80c11.028 0 20 8.972 20 20s-8.972 20-20 20-20-8.972-20-20 8.972-20 20-20z"/></svg>