<svg xmlns="http://www.w3.org/2000/svg" width="512" height="512" viewBox="0 0 64 64" xmlns:v="https://vecta.io/nano"><path d="M50.072 32.013l3.6-3.273a1 1 0 0 0 0-1.48l-3.6-3.273a26.865 26.865 0 0 0-36.144 0l-3.6 3.273a1 1 0 0 0 0 1.48l3.6 3.273a26.865 26.865 0 0 0 36.144 0zM12.486 28l2.787-2.534a24.869 24.869 0 0 1 33.454 0L51.514 28l-2.787 2.534a24.869 24.869 0 0 1-33.454 0zM40 28a8 8 0 1 0-8 8 8.009 8.009 0 0 0 8-8zm-2.027-.529A3.96 3.96 0 0 1 36 28a4 4 0 0 1-4-4 3.96 3.96 0 0 1 .529-1.973 6 6 0 0 1 5.444 5.444zm-7.706-5.214a5.976 5.976 0 0 0 7.476 7.476A6.009 6.009 0 0 1 32 34c-.036 0-.072-.005-.108-.005a4.965 4.965 0 0 0-5.887-5.887V28a6.009 6.009 0 0 1 4.262-5.743zm-3.89 7.817a2.964 2.964 0 0 1 3.549 3.549 6.022 6.022 0 0 1-3.549-3.549zM9.4 22.2l1.2 1.6 4-3a29 29 0 0 1 34.8 0l4 3 1.2-1.6-4-3-2.149-1.468L50.8 14.6l-1.6-1.2-2.5 3.329a31.267 31.267 0 0 0-6.3-2.529l1.53-3.823-1.858-.744-1.632 4.081a30.863 30.863 0 0 0-5.44-.673V8h-2v5.041a30.863 30.863 0 0 0-5.439.668l-1.632-4.081-1.858.744L23.6 14.2a31.267 31.267 0 0 0-6.3 2.534L14.8 13.4l-1.6 1.2 2.349 3.132L13.4 19.2zM33 53.1v-4.12C49.631 48.569 63 37.974 63 25 63 11.767 49.093 1 32 1S1 11.767 1 25c0 12.974 13.369 23.569 30 23.98v4.12a5.016 5.016 0 0 0-3.9 3.9H25v2h2.1a5 5 0 0 0 9.8 0H39v-2h-2.1a5.016 5.016 0 0 0-3.9-3.9zM3 25C3 12.869 16.009 3 32 3s29 9.869 29 22-13.009 22-29 22S3 37.131 3 25zm29 36a3 3 0 1 1 3-3 3 3 0 0 1-3 3zm27-7a4 4 0 0 0-3.858 3H53v2h2.142A3.993 3.993 0 1 0 59 54zm0 6a2 2 0 1 1 2-2 2 2 0 0 1-2 2zM5 54a4 4 0 1 0 3.858 5H11v-2H8.858A4 4 0 0 0 5 54zm0 6a2 2 0 1 1 2-2 2 2 0 0 1-2 2zm16-3h2v2h-2zm-4 0h2v2h-2zm-4 0h2v2h-2zm36 0h2v2h-2zm-4 0h2v2h-2zm-4 0h2v2h-2z"/></svg>