<?xml version="1.0"?>
<svg xmlns="http://www.w3.org/2000/svg" xmlns:xlink="http://www.w3.org/1999/xlink" xmlns:svgjs="http://svgjs.com/svgjs" version="1.1" width="512" height="512" x="0" y="0" viewBox="0 0 64 64" style="enable-background:new 0 0 512 512" xml:space="preserve"><g><path xmlns="http://www.w3.org/2000/svg" d="m50.072 32.013 3.6-3.273a1 1 0 0 0 0-1.48l-3.6-3.273a26.865 26.865 0 0 0 -36.144 0l-3.6 3.273a1 1 0 0 0 0 1.48l3.6 3.273a26.865 26.865 0 0 0 36.144 0zm-37.586-4.013 2.787-2.534a24.869 24.869 0 0 1 33.454 0l2.787 2.534-2.787 2.534a24.869 24.869 0 0 1 -33.454 0z" fill="#000000" data-original="#000000" style=""/><path xmlns="http://www.w3.org/2000/svg" d="m40 28a8 8 0 1 0 -8 8 8.009 8.009 0 0 0 8-8zm-2.027-.529a3.96 3.96 0 0 1 -1.973.529 4 4 0 0 1 -4-4 3.96 3.96 0 0 1 .529-1.973 6 6 0 0 1 5.444 5.444zm-7.706-5.214a5.976 5.976 0 0 0 7.476 7.476 6.009 6.009 0 0 1 -5.743 4.267c-.036 0-.072-.005-.108-.005a4.965 4.965 0 0 0 -5.887-5.887c0-.036 0-.072 0-.108a6.009 6.009 0 0 1 4.262-5.743zm-3.89 7.817a2.964 2.964 0 0 1 3.549 3.549 6.022 6.022 0 0 1 -3.549-3.549z" fill="#000000" data-original="#000000" style=""/><path xmlns="http://www.w3.org/2000/svg" d="m9.4 22.2 1.2 1.6 4-3a29 29 0 0 1 34.8 0l4 3 1.2-1.6-4-3c-.7-.521-1.414-1.008-2.149-1.468l2.349-3.132-1.6-1.2-2.5 3.329a31.267 31.267 0 0 0 -6.3-2.529l1.53-3.823-1.858-.744-1.632 4.081a30.863 30.863 0 0 0 -5.44-.673v-5.041h-2v5.041a30.863 30.863 0 0 0 -5.439.668l-1.632-4.081-1.858.744 1.529 3.828a31.267 31.267 0 0 0 -6.3 2.534l-2.5-3.334-1.6 1.2 2.349 3.132c-.735.46-1.454.947-2.149 1.468z" fill="#000000" data-original="#000000" style=""/><path xmlns="http://www.w3.org/2000/svg" d="m33 53.1v-4.12c16.631-.411 30-11.006 30-23.98 0-13.233-13.907-24-31-24s-31 10.767-31 24c0 12.974 13.369 23.569 30 23.98v4.12a5.016 5.016 0 0 0 -3.9 3.9h-2.1v2h2.1a5 5 0 0 0 9.8 0h2.1v-2h-2.1a5.016 5.016 0 0 0 -3.9-3.9zm-30-28.1c0-12.131 13.009-22 29-22s29 9.869 29 22-13.009 22-29 22-29-9.869-29-22zm29 36a3 3 0 1 1 3-3 3 3 0 0 1 -3 3z" fill="#000000" data-original="#000000" style=""/><path xmlns="http://www.w3.org/2000/svg" d="m59 54a4 4 0 0 0 -3.858 3h-2.142v2h2.142a3.993 3.993 0 1 0 3.858-5zm0 6a2 2 0 1 1 2-2 2 2 0 0 1 -2 2z" fill="#000000" data-original="#000000" style=""/><path xmlns="http://www.w3.org/2000/svg" d="m5 54a4 4 0 1 0 3.858 5h2.142v-2h-2.142a4 4 0 0 0 -3.858-3zm0 6a2 2 0 1 1 2-2 2 2 0 0 1 -2 2z" fill="#000000" data-original="#000000" style=""/><path xmlns="http://www.w3.org/2000/svg" d="m21 57h2v2h-2z" fill="#000000" data-original="#000000" style=""/><path xmlns="http://www.w3.org/2000/svg" d="m17 57h2v2h-2z" fill="#000000" data-original="#000000" style=""/><path xmlns="http://www.w3.org/2000/svg" d="m13 57h2v2h-2z" fill="#000000" data-original="#000000" style=""/><path xmlns="http://www.w3.org/2000/svg" d="m49 57h2v2h-2z" fill="#000000" data-original="#000000" style=""/><path xmlns="http://www.w3.org/2000/svg" d="m45 57h2v2h-2z" fill="#000000" data-original="#000000" style=""/><path xmlns="http://www.w3.org/2000/svg" d="m41 57h2v2h-2z" fill="#000000" data-original="#000000" style=""/></g></svg>
