<svg xmlns="http://www.w3.org/2000/svg" width="512" height="512" fill="#00722a" xmlns:v="https://vecta.io/nano"><path d="M158.5 323h83v40h-83zm0-80h233v40h-233zm173 80c-33.084 0-60 26.916-60 60s26.916 60 60 60 60-26.916 60-60-26.916-60-60-60zm0 80c-11.028 0-20-8.972-20-20s8.972-20 20-20 20 8.972 20 20-8.972 20-20 20zm120-403h-312-1v.008c-32.626.535-59 27.241-59 59.992v332.056H.5V452c0 32.415 25.839 58.891 58 59.951V512h352.889c33.084 0 60-26.916 60-60V120.056H511.5V60c0-33.084-26.916-60-60-60zm-372 452c0 10.861-8.702 19.727-19.5 19.994-10.798-.266-19.5-9.133-19.5-19.994v-19.944h39V452zm351.888 0c0 11.028-8.972 20-20 20H116.063a59.71 59.71 0 0 0 3.437-20V60c0-10.861 8.702-19.727 19.5-19.994 10.798.266 19.5 9.133 19.5 19.994v60.056h272.888V452zM471.5 80.056h-273V60c0-7.009-1.208-13.742-3.427-20H451.5c11.028 0 20 8.972 20 20v20.056zm-313 83.055h233v40h-233z"/></svg>