<?xml version="1.0"?>
<svg xmlns="http://www.w3.org/2000/svg" xmlns:xlink="http://www.w3.org/1999/xlink" xmlns:svgjs="http://svgjs.com/svgjs" version="1.1" width="512" height="512" x="0" y="0" viewBox="0 0 512 512" style="enable-background:new 0 0 512 512" xml:space="preserve"><g>
<g xmlns="http://www.w3.org/2000/svg">
	<g>
		<g>
			<rect x="158.5" y="323" width="83" height="40" fill="#00722a" data-original="#000000" style=""/>
			<rect x="158.5" y="243" width="233" height="40" fill="#00722a" data-original="#000000" style=""/>
			<path d="M331.5,323c-33.084,0-60,26.916-60,60s26.916,60,60,60s60-26.916,60-60C391.5,349.916,364.584,323,331.5,323z M331.5,403     c-11.028,0-20-8.972-20-20s8.972-20,20-20s20,8.972,20,20S342.528,403,331.5,403z" fill="#00722a" data-original="#000000" style=""/>
			<path d="M451.5,0h-312c-0.334,0.001-0.665,0.001-1,0v0.008c-32.626,0.535-59,27.241-59,59.992v332.056h-79V452     c0,32.415,25.839,58.891,58,59.951V512h352.889c33.084,0,60-26.916,60-60V120.056H511.5V60C511.5,26.916,484.584,0,451.5,0z      M79.5,452c0,10.861-8.702,19.727-19.5,19.994c-10.798-0.266-19.5-9.133-19.5-19.994v-19.944h39V452z M431.388,452     c0,11.028-8.972,20-20,20H116.063c2.22-6.259,3.437-12.989,3.437-20V60c0-10.861,8.702-19.727,19.5-19.994     c10.798,0.266,19.5,9.133,19.5,19.994v60.056h272.888V452z M471.5,80.056h-273V60c0-7.009-1.208-13.742-3.427-20H451.5     c11.028,0,20,8.972,20,20V80.056z" fill="#00722a" data-original="#000000" style=""/>
			<rect x="158.5" y="163.111" width="233" height="40" fill="#00722a" data-original="#000000" style=""/>
		</g>
	</g>
</g>
<g xmlns="http://www.w3.org/2000/svg">
</g>
<g xmlns="http://www.w3.org/2000/svg">
</g>
<g xmlns="http://www.w3.org/2000/svg">
</g>
<g xmlns="http://www.w3.org/2000/svg">
</g>
<g xmlns="http://www.w3.org/2000/svg">
</g>
<g xmlns="http://www.w3.org/2000/svg">
</g>
<g xmlns="http://www.w3.org/2000/svg">
</g>
<g xmlns="http://www.w3.org/2000/svg">
</g>
<g xmlns="http://www.w3.org/2000/svg">
</g>
<g xmlns="http://www.w3.org/2000/svg">
</g>
<g xmlns="http://www.w3.org/2000/svg">
</g>
<g xmlns="http://www.w3.org/2000/svg">
</g>
<g xmlns="http://www.w3.org/2000/svg">
</g>
<g xmlns="http://www.w3.org/2000/svg">
</g>
<g xmlns="http://www.w3.org/2000/svg">
</g>
</g></svg>
