<svg xmlns="http://www.w3.org/2000/svg" viewBox="0 0 512 512" xmlns:v="https://vecta.io/nano"><path d="M432.234 388.82h-.236c-5.522 0-10 4.478-10 10s4.478 10 10 10h.236c5.522 0 10-4.478 10-10s-4.477-10-10-10zm79.765 9.978V387.89c0-24.602-15.375-45.666-37.015-54.129 6.793-7.986 10.91-18.341 10.91-29.651 0-25.184-20.364-45.672-45.395-45.672-.145 0-.287.01-.431.011-6.659-9.589-15.928-16.842-26.524-20.975 6.758-7.977 10.851-18.305 10.851-29.582 0-25.184-20.364-45.672-45.396-45.672-.144 0-.285.01-.429.011-6.659-9.591-15.929-16.845-26.526-20.978 6.758-7.977 10.851-18.305 10.851-29.583C362.896 86.488 342.531 66 317.5 66s-45.396 20.488-45.396 45.671c0 11.278 4.093 21.607 10.851 29.583-10.599 4.133-19.867 11.387-26.527 20.978-.143-.001-.285-.011-.428-.011s-.286.01-.429.011c-6.66-9.591-15.929-16.845-26.527-20.978 6.758-7.977 10.851-18.305 10.851-29.583C239.894 86.488 219.531 66 194.5 66s-45.397 20.488-45.397 45.671c0 11.278 4.093 21.607 10.851 29.583-10.598 4.133-19.867 11.387-26.526 20.978-.143-.001-.285-.011-.428-.011-25.031 0-45.396 20.488-45.396 45.672 0 11.277 4.093 21.605 10.851 29.582-10.597 4.133-19.866 11.385-26.525 20.975-.144-.001-.286-.011-.43-.011-25.031 0-45.396 20.488-45.396 45.672a45.62 45.62 0 0 0 10.911 29.651C15.375 342.225 0 363.289 0 387.891V436c0 5.522 4.477 10 10 10h491.999c5.523 0 10-4.478 10-10v-37.162c0-.007.001-.013.001-.02s-.001-.013-.001-.02zM440.5 278.438c14.003.001 25.395 11.517 25.395 25.672s-11.392 25.671-25.395 25.671-25.397-11.516-25.397-25.671 11.393-25.672 25.397-25.672zM379 182.221c14.003 0 25.396 11.516 25.396 25.672S393.003 233.564 379 233.564s-25.396-11.516-25.396-25.671 11.393-25.672 25.396-25.672zM317.5 86c14.003 0 25.396 11.516 25.396 25.671s-11.393 25.672-25.396 25.672-25.396-11.517-25.396-25.672S303.497 86 317.5 86zm-13.764 71.343h27.526c9.786 0 19.007 3.867 25.927 10.508-14.044 7.774-23.585 22.807-23.585 40.042 0 11.277 4.093 21.605 10.851 29.582-10.598 4.133-19.865 11.385-26.524 20.975-.144-.001-.286-.011-.431-.011s-.287.01-.432.011c-6.659-9.589-15.927-16.842-26.524-20.975 6.758-7.977 10.851-18.305 10.851-29.582 0-17.235-9.541-32.268-23.586-40.042 6.92-6.641 16.141-10.508 25.927-10.508zm39.16 146.767c0 14.155-11.393 25.671-25.396 25.671s-25.397-11.515-25.397-25.671 11.393-25.672 25.397-25.672 25.396 11.517 25.396 25.672zM256 182.221c14.003 0 25.395 11.517 25.395 25.672S270.002 233.564 256 233.564s-25.396-11.516-25.396-25.671 11.393-25.672 25.396-25.672zM194.5 86c14.002 0 25.394 11.516 25.394 25.671s-11.392 25.672-25.394 25.672-25.397-11.517-25.397-25.672S180.497 86 194.5 86zm-13.764 71.343h27.526c9.786 0 19.007 3.867 25.927 10.509-14.045 7.773-23.585 22.806-23.585 40.041 0 11.277 4.093 21.605 10.851 29.582-10.597 4.133-19.866 11.385-26.525 20.975-.144-.001-.286-.011-.43-.011s-.286.01-.43.011c-6.659-9.59-15.928-16.842-26.525-20.975 6.758-7.977 10.851-18.305 10.851-29.582 0-17.235-9.541-32.268-23.585-40.042 6.918-6.641 16.14-10.508 25.925-10.508zm39.158 146.767c0 14.155-11.392 25.671-25.394 25.671s-25.397-11.515-25.397-25.671 11.393-25.672 25.397-25.672 25.394 11.517 25.394 25.672zM133 182.221c14.003 0 25.395 11.517 25.395 25.672S147.002 233.564 133 233.564s-25.396-11.516-25.396-25.671 11.393-25.672 25.396-25.672zm-61.5 96.218c14.003 0 25.395 11.517 25.395 25.672S85.502 329.782 71.5 329.782s-25.396-11.516-25.396-25.671 11.393-25.672 25.396-25.672zM122.999 426H20v-17.182h31.035a10 10 0 0 0 10-10c0-5.522-4.477-10-10-10H20v-.928c0-21.014 17.096-38.109 38.109-38.109H84.89c21.014 0 38.109 17.096 38.109 38.109V426zm9.999-70.664a58.42 58.42 0 0 0-27.015-21.574 45.62 45.62 0 0 0 10.911-29.651c0-17.234-9.54-32.266-23.584-40.041 6.921-6.64 16.141-10.506 25.926-10.506h27.526c9.786 0 19.006 3.866 25.925 10.506-14.044 7.774-23.585 22.807-23.585 40.041 0 11.31 4.117 21.666 10.911 29.651a58.42 58.42 0 0 0-27.015 21.574zM245.999 426H143v-38.109c0-21.014 17.096-38.109 38.109-38.109h26.781c21.014 0 38.109 17.096 38.109 38.109V426zM256 355.336c-6.567-9.674-15.979-17.259-27.016-21.574 6.793-7.986 10.91-18.341 10.91-29.651 0-17.234-9.539-32.266-23.583-40.04 6.92-6.641 16.14-10.507 25.925-10.507h27.526c9.785 0 19.005 3.866 25.925 10.507-14.044 7.774-23.584 22.806-23.584 40.04a45.62 45.62 0 0 0 10.911 29.651c-11.037 4.316-20.448 11.9-27.014 21.574zM368.999 426H266v-38.109c0-21.014 17.096-38.109 38.108-38.109h26.782c21.014 0 38.109 17.096 38.109 38.109V426zm10-70.665c-6.566-9.674-15.978-17.258-27.015-21.574 6.793-7.986 10.91-18.341 10.91-29.651 0-17.234-9.54-32.266-23.584-40.041 6.92-6.64 16.14-10.506 25.925-10.506h27.526c9.785 0 19.006 3.866 25.925 10.506-14.041 7.776-23.583 22.807-23.583 40.041a45.62 45.62 0 0 0 10.911 29.651 58.42 58.42 0 0 0-27.015 21.574zm112.999 33.484h-31.034c-5.522 0-10 4.478-10 10s4.478 10 10 10h31.034V426H389v-38.109c0-21.014 17.096-38.109 38.109-38.109h26.781c21.013 0 38.108 17.096 38.108 38.109v.928zm-411.997.001h-.235c-5.523 0-10 4.478-10 10s4.477 10 10 10h.235c5.523 0 10-4.478 10-10s-4.477-10-10-10z"/></svg>