<svg xmlns="http://www.w3.org/2000/svg" width="512" height="512" fill="#00722a" xmlns:v="https://vecta.io/nano"><path d="M0 336h173v40H0zm0 80h143v40H0zm0-160h203v40H0zm444.464-145.252l18.22-21.097 22.705 19.609 26.145-30.272-75.682-65.362-26.145 30.272 22.705 19.609L414.17 84.63C379.546 59.52 338.956 44.429 296 40.847V0h-40v40.847c-43.211 3.603-84.027 18.851-118.784 44.227l-18.627-21.568 22.705-19.609-26.145-30.272-75.682 65.362 26.145 30.272L88.317 89.65l18.681 21.631C78.078 140.936 57.879 176.881 47.67 216h41.736C114.809 137.185 188.846 80 276 80c108.075 0 196 87.925 196 196s-87.925 196-196 196c-33.633 0-65.313-8.519-93-23.507v44.53C212.001 505.457 243.496 512 276 512c63.038 0 122.303-24.548 166.877-69.123S512 339.038 512 276c0-62.28-23.975-120.866-67.536-165.252zM256 120v176h133v-40h-93V120z"/></svg>