<svg xmlns="http://www.w3.org/2000/svg" xmlns:xlink="http://www.w3.org/1999/xlink" height="512" width="512" xmlns:v="https://vecta.io/nano"><path d="M477.38 22.446H34.62C15.53 22.446 0 37.977 0 57.066v294.701c0 19.089 15.53 34.62 34.62 34.62H94a7.5 7.5 0 1 0 0-15H34.62c-10.818 0-19.62-8.802-19.62-19.62v-23.269c5.581 3.854 12.34 6.118 19.62 6.118h442.76c7.28 0 14.039-2.264 19.62-6.118v23.269c0 10.818-8.802 19.62-19.62 19.62H283.007h-.058-53.894-.069H124a7.5 7.5 0 1 0 0 15h93.576l-21.618 50.176h-13.575c-17.846 0-32.365 14.519-32.365 32.366v4.866a15.78 15.78 0 0 0 15.759 15.759h180.448a15.78 15.78 0 0 0 15.759-15.759v-4.866c0-17.847-14.519-32.366-32.365-32.366h-13.575l-21.618-50.176H477.38c19.09 0 34.62-15.531 34.62-34.62V57.066c0-19.089-15.53-34.62-34.62-34.62zM346.983 468.929v4.866a.76.76 0 0 1-.759.759H165.776a.76.76 0 0 1-.759-.759v-4.866c0-9.576 7.79-17.366 17.365-17.366h18.468c.013 0 .026.002.039.002s.018-.002.027-.002h110.168c.009 0 .018.002.027.002s.026-.002.039-.002h18.468a17.39 17.39 0 0 1 17.365 17.366zm-47.273-32.366h-87.42l21.618-50.176h44.184zm177.67-116.946H34.62c-10.818 0-19.62-8.802-19.62-19.62V57.066c0-10.818 8.802-19.62 19.62-19.62h442.76c10.818 0 19.62 8.802 19.62 19.62v242.93c0 10.819-8.802 19.621-19.62 19.621zM237.607 96.626l10.893-6.194v26.357a7.5 7.5 0 1 0 15 0V90.433l10.893 6.194c1.171.666 2.444.982 3.701.982 2.609 0 5.145-1.364 6.526-3.794a7.5 7.5 0 0 0-2.812-10.227l-23.07-13.024a7.51 7.51 0 0 0-6.402.437c-.014.008-.029.013-.043.021l-22.1 12.567a7.5 7.5 0 0 0-2.812 10.227 7.5 7.5 0 0 0 10.226 2.81zm-60.552 143.917l-22.831 13.149v-12.448a7.5 7.5 0 1 0-15 0c.004 26.686-1.142 29.201 3.812 31.954L164.959 286c1.189.694 2.49 1.024 3.775 1.024 2.579 0 5.089-1.332 6.483-3.719a7.5 7.5 0 0 0-2.695-10.258l-10.848-6.335 22.867-13.17a7.5 7.5 0 1 0-7.486-12.999zm188.221-6.798a7.5 7.5 0 0 0-7.5 7.5v12.448l-22.831-13.149a7.5 7.5 0 1 0-7.486 12.998l22.867 13.17-10.848 6.335a7.5 7.5 0 0 0-2.695 10.258c1.394 2.388 3.904 3.719 6.483 3.719a7.47 7.47 0 0 0 3.775-1.024c20.383-12.246 24.286-12.715 25.498-17.484.494-1.936.078-1.821.237-27.271a7.5 7.5 0 0 0-7.5-7.5zm-50.941-68.132l-54.585-31.518a7.5 7.5 0 0 0-7.501 0l-54.585 31.518a7.5 7.5 0 0 0-3.75 6.495c0 .188.023.373.037.559v62.471a7.5 7.5 0 0 0 3.75 6.495l54.009 31.179.499.334c1.16.67 2.455 1.005 3.75 1.005.013 0 .026-.002.04-.002s.026.002.04.002c1.295 0 2.59-.335 3.75-1.005.175-.101.335-.221.499-.334l54.009-31.179c2.321-1.339 3.75-3.815 3.75-6.495v-62.471l.037-.559c.001-2.679-1.428-5.155-3.749-6.495zM256 149.251l39.566 22.845L256 194.938l-39.566-22.841zm-47.048 35.869l39.508 22.812v45.684l-39.508-22.808zm54.588 68.496v-45.684l39.508-22.812v45.688zM83 65.678H48a14.52 14.52 0 0 0-14.5 14.5v177.573a14.52 14.52 0 0 0 14.5 14.5h35a14.52 14.52 0 0 0 14.5-14.5V80.178a14.52 14.52 0 0 0-14.5-14.5zm-.5 191.573h-34V80.678h34z"/><use xlink:href="#B"/><use xlink:href="#B" y="39.15"/><use xlink:href="#B" y="78.3"/><use xlink:href="#B" y="117.45"/><path d="M466.55 56.066h-96.19c-6.893 0-12.5 5.607-12.5 12.5v81.55c0 6.893 5.607 12.5 12.5 12.5h96.19c6.893 0 12.5-5.607 12.5-12.5v-81.55c0-6.892-5.608-12.5-12.5-12.5zm-2.5 91.55h-91.19v-76.55h91.19zm-69.595-43.775h23a7.5 7.5 0 1 0 0-15h-23a7.5 7.5 0 1 0 0 15zm0 26h48a7.5 7.5 0 1 0 0-15h-48a7.5 7.5 0 1 0 0 15z"/><defs ><path id="B" d="M62.667 117.74h5.667a7.5 7.5 0 1 0 0-15h-5.667a7.5 7.5 0 1 0 0 15z"/></defs></svg>