<svg id="Layer_5" enable-background="new 0 0 64 64" height="512" viewBox="0 0 64 64" width="512" xmlns="http://www.w3.org/2000/svg"><path d="m40.911 53.595-2.341 1.561 1.844 1.844-4 4h7.586v-2c0-2.872-1.017-5.51-2.706-7.578z"/><path d="m32 47c-1.293 0-2.537.212-3.705.592l3.705 11.219 3.706-11.219c-1.169-.38-2.412-.592-3.706-.592z"/><circle cx="32" cy="39" r="6"/><path d="m25.43 55.155-2.341-1.561-.383-2.173c-1.689 2.069-2.706 4.707-2.706 7.579v2h7.586l-4-4z"/><path d="m24.433 49.698.478 2.708 3.659 2.439-2.156 2.155 4 4h.202l-4.17-12.627c-.716.375-1.391.818-2.013 1.325z"/><path d="m35.43 54.845 3.659-2.439.478-2.708c-.622-.507-1.297-.949-2.013-1.325l-4.17 12.627h.202l4-4z"/><path d="m29 27h6v-12h3.131l-6.131-9.197-6.131 9.197h3.131z"/><path d="m5.275 17.275 2.128 10.641 2.189-2.189 8.506 8.845 4.474-4.474-8.845-8.506 2.189-2.189z"/><path d="m45.902 34.572 8.506-8.845 2.189 2.189 2.128-10.641-10.641 2.128 2.189 2.189-8.845 8.506z"/><circle cx="4" cy="4" r="3"/><path d="m9.536 9.536h2v2h-2z" transform="matrix(.707 -.707 .707 .707 -4.364 10.536)"/><path d="m6.707 6.707h2v2h-2z" transform="matrix(.707 -.707 .707 .707 -3.192 7.707)"/><path d="m12.328 12.379h2v1.9h-2z" transform="matrix(.707 -.707 .707 .707 -5.521 13.328)"/><circle cx="4" cy="60" r="3"/><path d="m12.379 49.672h1.9v2h-1.9z" transform="matrix(.707 -.707 .707 .707 -31.927 24.266)"/><path d="m6.707 55.293h2v2h-2z" transform="matrix(.707 -.707 .707 .707 -37.548 21.938)"/><path d="m9.536 52.464h2v2h-2z" transform="matrix(.707 -.707 .707 .707 -34.719 23.109)"/><circle cx="60" cy="60" r="3"/><path d="m52.464 52.464h2v2h-2z" transform="matrix(.707 -.707 .707 .707 -22.146 53.464)"/><path d="m49.672 49.722h2v1.9h-2z" transform="matrix(.707 -.707 .707 .707 -20.989 50.672)"/><path d="m55.293 55.293h2v2h-2z" transform="matrix(.707 -.707 .707 .707 -23.317 56.293)"/><circle cx="60" cy="4" r="3"/><path d="m49.722 12.328h1.9v2h-1.9z" transform="matrix(.707 -.707 .707 .707 5.417 39.734)"/><path d="m55.293 6.707h2v2h-2z" transform="matrix(.707 -.707 .707 .707 11.038 42.063)"/><path d="m52.464 9.536h2v2h-2z" transform="matrix(.707 -.707 .707 .707 8.21 40.891)"/><circle cx="60" cy="41" r="3"/><path d="m49 40h2v2h-2z"/><path d="m53 40h2v2h-2z"/><path d="m45 40h2v2h-2z"/><circle cx="4" cy="41" r="3"/><path d="m17 40h2v2h-2z"/><path d="m13 40h2v2h-2z"/><path d="m9 40h2v2h-2z"/></svg>