<svg xmlns="http://www.w3.org/2000/svg" height="512" viewBox="0 0 64 64" width="512" xmlns:v="https://vecta.io/nano"><path d="M40.911 53.595l-2.341 1.561L40.414 57l-4 4H44v-2c0-2.872-1.017-5.51-2.706-7.578zM32 47c-1.293 0-2.537.212-3.705.592L32 58.811l3.706-11.219A11.96 11.96 0 0 0 32 47z"/><circle cx="32" cy="39" r="6"/><path d="M25.43 55.155l-2.341-1.561-.383-2.173C21.017 53.49 20 56.128 20 59v2h7.586l-4-4zm-.997-5.457l.478 2.708 3.659 2.439L26.414 57l4 4h.202l-4.17-12.627c-.716.375-1.391.818-2.013 1.325zm10.997 5.147l3.659-2.439.478-2.708c-.622-.507-1.297-.949-2.013-1.325L33.384 61h.202l4-4zM29 27h6V15h3.131L32 5.803 25.869 15H29zM5.275 17.275l2.128 10.641 2.189-2.189 8.506 8.845 4.474-4.474-8.845-8.506 2.189-2.189zm40.627 17.297l8.506-8.845 2.189 2.189 2.128-10.641-10.641 2.128 2.189 2.189-8.845 8.506z"/><circle cx="4" cy="4" r="3"/><path d="M9.12 10.536l1.414-1.414 1.414 1.414-1.414 1.414zM6.292 7.707l1.414-1.414L9.12 7.707 7.706 9.121zm5.655 5.657l1.414-1.414 1.343 1.343-1.414 1.414z"/><circle cx="4" cy="60" r="3"/><path d="M11.943 50.632l1.343-1.343 1.414 1.414-1.343 1.343zm-5.657 5.656L7.7 54.874l1.414 1.414L7.7 57.702zm2.829-2.829l1.414-1.414 1.414 1.414-1.414 1.414z"/><circle cx="60" cy="60" r="3"/><path d="M52.038 53.464l1.414-1.414 1.414 1.414-1.414 1.414zm-2.755-2.757l1.414-1.414 1.343 1.343-1.414 1.414zm5.584 5.586l1.414-1.414 1.414 1.414-1.414 1.414z"/><circle cx="60" cy="4" r="3"/><path d="M49.286 13.296l1.343-1.343 1.414 1.414L50.7 14.71zm5.586-5.583l1.414-1.414L57.7 7.713l-1.414 1.414zm-2.828 2.828l1.414-1.414 1.414 1.414-1.414 1.414z"/><circle cx="60" cy="41" r="3"/><path d="M49 40h2v2h-2zm4 0h2v2h-2zm-8 0h2v2h-2z"/><circle cx="4" cy="41" r="3"/><path d="M17 40h2v2h-2zm-4 0h2v2h-2zm-4 0h2v2H9z"/></svg>