<?xml version="1.0"?>
<svg xmlns="http://www.w3.org/2000/svg" xmlns:xlink="http://www.w3.org/1999/xlink" xmlns:svgjs="http://svgjs.com/svgjs" version="1.1" width="512" height="512" x="0" y="0" viewBox="0 0 512 512" style="enable-background:new 0 0 512 512" xml:space="preserve" class=""><g>
<g xmlns="http://www.w3.org/2000/svg">
	<g>
		<g>
			<path d="M40,199c0-11.028,8.972-20,20-20h78.593c6.357,0,12.281,2.996,16.047,8.063l55.474,110.886l35.773-17.896     l-56.682-113.299l-0.689-1.034C177.362,148.988,158.7,139,138.593,139H60c-33.084,0-60,26.916-60,60v168h40v145h40V327H40V199z" fill="#00722a" data-original="#000000" style="" class=""/>
			<path d="M101,120c33.084,0,60-26.916,60-60S134.084,0,101,0S41,26.916,41,60S67.916,120,101,120z M101,40     c11.028,0,20,8.972,20,20s-8.972,20-20,20s-20-8.972-20-20S89.972,40,101,40z" fill="#00722a" data-original="#000000" style="" class=""/>
			<polygon points="272,231 272,323 432,323 432,121 392,121 392,283 372,283 372,181 332,181 332,283 312,283 312,231    " fill="#00722a" data-original="#000000" style="" class=""/>
			<path d="M282,41V0h-40v41h-41v40h271v262c0,11.028-8.972,20-20,20H201v40h41v69h-41v40h81h74v-40h-74v-69h170     c33.084,0,60-26.916,60-60V41H282z" fill="#00722a" data-original="#000000" style="" class=""/>
			<rect x="120" y="247" width="40" height="265" fill="#00722a" data-original="#000000" style="" class=""/>
		</g>
	</g>
</g>
<g xmlns="http://www.w3.org/2000/svg">
</g>
<g xmlns="http://www.w3.org/2000/svg">
</g>
<g xmlns="http://www.w3.org/2000/svg">
</g>
<g xmlns="http://www.w3.org/2000/svg">
</g>
<g xmlns="http://www.w3.org/2000/svg">
</g>
<g xmlns="http://www.w3.org/2000/svg">
</g>
<g xmlns="http://www.w3.org/2000/svg">
</g>
<g xmlns="http://www.w3.org/2000/svg">
</g>
<g xmlns="http://www.w3.org/2000/svg">
</g>
<g xmlns="http://www.w3.org/2000/svg">
</g>
<g xmlns="http://www.w3.org/2000/svg">
</g>
<g xmlns="http://www.w3.org/2000/svg">
</g>
<g xmlns="http://www.w3.org/2000/svg">
</g>
<g xmlns="http://www.w3.org/2000/svg">
</g>
<g xmlns="http://www.w3.org/2000/svg">
</g>
</g></svg>
