<svg xmlns="http://www.w3.org/2000/svg" width="512" height="512" fill="#00722a" xmlns:v="https://vecta.io/nano"><path d="M40 199c0-11.028 8.972-20 20-20h78.593c6.357 0 12.281 2.996 16.047 8.063l55.474 110.886 35.773-17.896-56.682-113.299-.689-1.034C177.362 148.988 158.7 139 138.593 139H60c-33.084 0-60 26.916-60 60v168h40v145h40V327H40V199zm61-79c33.084 0 60-26.916 60-60S134.084 0 101 0 41 26.916 41 60s26.916 60 60 60zm0-80c11.028 0 20 8.972 20 20s-8.972 20-20 20-20-8.972-20-20 8.972-20 20-20zm171 191v92h160V121h-40v162h-20V181h-40v102h-20v-52zm10-190V0h-40v41h-41v40h271v262c0 11.028-8.972 20-20 20H201v40h41v69h-41v40h81 74v-40h-74v-69h170c33.084 0 60-26.916 60-60V41H282zM120 247h40v265h-40z"/></svg>