<svg xmlns="http://www.w3.org/2000/svg" width="512" height="512" viewBox="0 0 64 64" fill="#fff" xmlns:v="https://vecta.io/nano"><path d="M14.193 9.412A14.21 14.21 0 0 0 .001 23.604c0 7.55 5.925 13.742 13.369 14.17.129 1.392.032 5.18-3.598 10.449a1 1 0 0 0 .116 1.274l3.046 3.075c.841.855 1.225 1.246 1.786 1.756.19.173.431.26.672.26a1 1 0 0 0 .656-.245c6.325-5.504 13.352-16.876 12.335-30.812-.596-8.182-6.563-14.12-14.191-14.12zm1.209 42.81l-1.041-1.051-2.478-2.507c4.405-6.788 3.573-11.623 3.209-12.316-.173-.329-.527-.551-.899-.551A12.21 12.21 0 0 1 2.001 23.604a12.21 12.21 0 0 1 12.192-12.192c6.549 0 11.678 5.158 12.196 12.265 1.143 15.674-8.173 25.851-10.987 28.546zM63.9 23.532v-.001c-.598-8.181-6.566-14.119-14.191-14.119-7.826 0-14.193 6.366-14.193 14.192 0 7.55 5.926 13.742 13.371 14.17.129 1.391.031 5.177-3.6 10.449a1 1 0 0 0 .116 1.274l3.038 3.066c.845.861 1.23 1.254 1.795 1.766a1 1 0 0 0 .672.259c.234 0 .468-.082.656-.246 6.326-5.504 13.352-16.876 12.336-30.81zm-12.982 28.69l-1.05-1.059-2.471-2.498c4.405-6.789 3.574-11.623 3.211-12.316a1.04 1.04 0 0 0-.899-.551 12.21 12.21 0 0 1-12.193-12.193 12.21 12.21 0 0 1 12.193-12.192c6.548 0 11.678 5.158 12.197 12.266v-.001c1.142 15.672-8.174 25.851-10.988 28.546z"/></svg>