<svg xmlns="http://www.w3.org/2000/svg" viewBox="0 0 512 512" xmlns:v="https://vecta.io/nano"><path d="M121 68.5H45c-8.291 0-15 6.709-15 15s6.709 15 15 15h76c8.291 0 15-6.709 15-15s-6.709-15-15-15zm0 120H45c-8.291 0-15 6.709-15 15s6.709 15 15 15h76c8.291 0 15-6.709 15-15s-6.709-15-15-15zm-30-60H15c-8.291 0-15 6.709-15 15s6.709 15 15 15h76c8.291 0 15-6.709 15-15s-6.709-15-15-15zm391 75h-91v-60c0-26.346-32.229-40.218-51.22-21.202L219.789 242.289c-11.719 11.719-11.719 30.703 0 42.422l68.789 68.789-83.789 83.789c-11.719 11.719-11.719 30.703 0 42.422s30.703 11.719 42.422 0l105-105c11.719-11.719 11.719-30.703 0-42.422L283.422 263.5 331 215.922V233.5c0 16.567 13.433 30 30 30h121c16.567 0 30-13.433 30-30s-13.433-30-30-30zM280.14 51.04c-11.924-7.925-27.744-6.357-37.852 3.75l-82.5 82.5c-11.719 11.719-11.719 30.703 0 42.422s30.704 11.718 42.423-.001l65.112-65.112 21.934 15.8 29.306-29.306c4.902-4.902 10.684-8.707 17.007-11.678L280.14 51.04zm-81.562 254.882c-7.601-7.601-12.675-16.956-15.35-27.072L24.789 437.289c-11.719 11.719-11.719 30.703 0 42.422s30.703 11.719 42.422 0l152.578-152.578-21.211-21.211z"/><circle cx="406" cy="68.5" r="45"/></svg>