<svg xmlns="http://www.w3.org/2000/svg" width="512" height="512" xmlns:v="https://vecta.io/nano"><path d="M24 374.521a54.492 54.492 0 0 0 8 28.414V496h16v-32h96v32h16v-32h55.016a16.972 16.972 0 0 0 14.387-8h102.741a24 24 0 0 0 20.73-36.093L268.73 275.661a24 24 0 0 0-41.461 0l-37.654 64.55L173.333 328a40.25 40.25 0 0 0-24-8h-14.709a23.882 23.882 0 0 0 1.376-8v-12.686l2.344-2.344A19.314 19.314 0 0 0 124.687 264H112a24.028 24.028 0 0 0-24 24v24a23.882 23.882 0 0 0 1.376 8H78.521A54.583 54.583 0 0 0 24 374.521zM78.521 336H88l-12.8 9.6 9.6 12.801 6.877-5.158 4.05 8.1-2.76 19.321-14.821-17.785-12.291 10.242 16.375 19.65-22.896 18.317-9.802-11.203A38.52 38.52 0 0 1 78.521 336zm32.418 32h2.123l5.714 40h-3.028l-8.982-10.779zm4.117-16h-6.111l-4.257-8.515L112 338l7.313 5.485zM112 320a8.009 8.009 0 0 1-8-8v-4.687l3.313-3.313H120v8a8.009 8.009 0 0 1-8 8zM48 422.433L70.371 448H48zM215.016 448H102.521a24 24 0 0 1-18.062-8.195l-14.58-16.663 22.595-18.076 13.38 16.056A7.999 7.999 0 0 0 112 424h56a8.002 8.002 0 0 0 4.438-1.344l18.314-12.209-6.342 19.022a8.001 8.001 0 0 0 5.649 10.291l25.194 6.299a.985.985 0 0 1-.238 1.94zM160 390.98v-8.032l3.374 2.249zm81.09-107.257a8 8 0 0 1 13.82 0l84.144 144.246a8 8 0 0 1-6.91 12.03H230.485a16.954 16.954 0 0 0-11.35-9.462l-16.813-4.204 4.68-14.039a19.403 19.403 0 0 0 .999-6.154 14.14 14.14 0 0 0-21.984-11.766l-15.5 10.334zm-77.356 57.077l17.766 13.324-10.049 17.227-15.012-10.008A8 8 0 0 0 144 368v40h-9.061l-6.665-46.657 4.05-8.1 6.877 5.158 9.6-12.801L136 336h13.333a24.153 24.153 0 0 1 14.4 4.801zM112 280h12.687a3.313 3.313 0 0 1 2.343 5.656L124.686 288H104a8.009 8.009 0 0 1 8-8z"/><circle cx="248" cy="400" r="8"/><path d="M240 328h16v56h-16zM16 136h24v16H16zm408 96a23.89 23.89 0 0 0-7.574 1.232l-59.832-76.926a23.989 23.989 0 0 0-27.457-35.301l-52.941-68.066a23.994 23.994 0 1 0-41.852-2.598l-72.005 72.005A23.988 23.988 0 0 0 129.376 136H56v16h73.376a23.997 23.997 0 1 0 44.279-18.34l72.005-72.005a23.94 23.94 0 0 0 17.915 1.113l52.636 67.674a23.994 23.994 0 0 0 28.067 36.086l59.526 76.533A23.992 23.992 0 1 0 446.624 264H496v-16h-49.376A24.038 24.038 0 0 0 424 232zm-272-80a8 8 0 1 1 8-8 8.009 8.009 0 0 1-8 8zm96-112a8 8 0 1 1 8 8 8.009 8.009 0 0 1-8-8zm80 104a8 8 0 1 1 8 8 8.009 8.009 0 0 1-8-8zm96 120a8 8 0 1 1 8-8 8.009 8.009 0 0 1-8 8zM264 128h-48a8 8 0 0 0-8 8v56h-40a8 8 0 0 0-8 8v104h16v-96h32v64h16V144h32v104h16v-48h32v112h16v-48h32v128h16v-72h32v120h-24v16h80a8 8 0 0 0 8-8v-88a8 8 0 0 0-8-8h-40v-40a8 8 0 0 0-8-8h-40v-48a8 8 0 0 0-8-8h-40v-56a8 8 0 0 0-8-8h-40v-48a8 8 0 0 0-8-8zm184 240v72h-32v-72z"/></svg>