<?xml version="1.0" encoding="UTF-8"?>
<svg xmlns="http://www.w3.org/2000/svg" id="outline" viewBox="0 0 512 512" width="512" height="512"><path d="M24,374.52051a54.49246,54.49246,0,0,0,8,28.41357V496H48V464h96v32h16V464h55.01562a16.9716,16.9716,0,0,0,14.387-8h102.741A24.00016,24.00016,0,0,0,352.874,419.90723l-84.14355-144.2461a24.00047,24.00047,0,0,0-41.46094,0l-37.6543,64.5503L173.333,328a40.25015,40.25015,0,0,0-24-8H134.62378A23.88238,23.88238,0,0,0,136,312V299.31445l2.34375-2.34375A19.31423,19.31423,0,0,0,124.68652,264H112a24.0275,24.0275,0,0,0-24,24v24a23.88238,23.88238,0,0,0,1.37622,8H78.52051A54.58253,54.58253,0,0,0,24,374.52051ZM78.52051,336h9.47925L75.2002,345.59961l9.5996,12.80078,6.877-5.15771,4.0498,8.10009L92.9668,380.66406,78.14551,362.87891l-12.291,10.24218,16.37525,19.65039L59.3335,411.08862l-9.80225-11.20288A38.51968,38.51968,0,0,1,78.52051,336Zm32.41821,32h2.12256l5.71411,40h-3.02832l-8.98242-10.77881Zm4.11694-16h-6.11132l-4.25733-8.51489L112,338.00024l7.313,5.48487ZM112,320a8.00917,8.00917,0,0,1-8-8v-4.68652L107.31348,304H120v8A8.00917,8.00917,0,0,1,112,320ZM48,422.43311,70.37061,448H48ZM215.01562,448H102.52051A24.00018,24.00018,0,0,1,84.459,439.80469L69.87915,423.14136l22.59546-18.07617,13.37988,16.0559A7.99862,7.99862,0,0,0,112,424h56a8.00221,8.00221,0,0,0,4.4375-1.34375l18.31445-12.209-6.34179,19.02246a8.00056,8.00056,0,0,0,5.64941,10.291l25.19434,6.29883A.98491.98491,0,0,1,215.01562,448ZM160,390.98047v-8.03223l3.37354,2.249Zm81.08984-107.25684a8.00016,8.00016,0,0,1,13.82032,0l84.14355,144.2461A8.00016,8.00016,0,0,1,332.14355,440H230.48486a16.954,16.954,0,0,0-11.35009-9.46191L202.32129,426.334l4.67969-14.03906a19.40293,19.40293,0,0,0,.999-6.1543A14.14049,14.14049,0,0,0,186.01562,394.375l-15.50024,10.3335ZM163.7334,340.80078l17.76562,13.324L171.45,371.35205l-15.01245-10.0083A7.99977,7.99977,0,0,0,144,368v40h-9.06128l-6.66528-46.65723,4.0498-8.10009,6.877,5.15771,9.5996-12.80078L136.00024,336H149.333A24.15289,24.15289,0,0,1,163.7334,340.80078ZM112,280h12.68652a3.31318,3.31318,0,0,1,2.34278,5.65625L124.68555,288H104A8.00917,8.00917,0,0,1,112,280Z"/><circle cx="248" cy="400" r="8"/><rect x="240" y="328" width="16" height="56"/><rect x="16" y="136" width="24" height="16"/><path d="M424,232a23.89033,23.89033,0,0,0-7.57373,1.23169l-59.83154-76.92554a23.98938,23.98938,0,0,0-27.45655-35.30127L276.19751,52.93872a23.99436,23.99436,0,1,0-41.8523-2.59839l-72.00488,72.00488A23.98846,23.98846,0,0,0,129.37622,136H56v16h73.37622a23.99712,23.99712,0,1,0,44.27857-18.34033l72.00488-72.00488a23.93994,23.93994,0,0,0,17.91455,1.11328L316.21,130.44238a23.994,23.994,0,0,0,28.0669,36.0857l59.52587,76.533A23.99219,23.99219,0,1,0,446.62378,264H496V248H446.62378A24.0384,24.0384,0,0,0,424,232ZM152,152a8,8,0,1,1,8-8A8.00917,8.00917,0,0,1,152,152ZM248,40a8,8,0,1,1,8,8A8.00917,8.00917,0,0,1,248,40Zm80,104a8,8,0,1,1,8,8A8.00917,8.00917,0,0,1,328,144Zm96,120a8,8,0,1,1,8-8A8.00917,8.00917,0,0,1,424,264Z"/><path d="M264,128H216a8.00039,8.00039,0,0,0-8,8v56H168a8.00039,8.00039,0,0,0-8,8V304h16V208h32v64h16V144h32V248h16V200h32V312h16V264h32V392h16V320h32V440H376v16h80a8.00039,8.00039,0,0,0,8-8V360a8.00039,8.00039,0,0,0-8-8H416V312a8.00039,8.00039,0,0,0-8-8H368V256a8.00039,8.00039,0,0,0-8-8H320V192a8.00039,8.00039,0,0,0-8-8H272V136A8.00039,8.00039,0,0,0,264,128ZM448,368v72H416V368Z"/></svg>
