<svg id="Layer_5" enable-background="new 0 0 64 64" height="512" viewBox="0 0 64 64" width="512" xmlns="http://www.w3.org/2000/svg"><g><path d="m54 3h-14c-.552 0-1 .449-1 1v4h-2c-1.103 0-2 .897-2 2s.897 2 2 2h2v5h4c0-2.206 1.794-4 4-4s4 1.794 4 4h3c.552 0 1-.449 1-1v-12c0-.551-.448-1-1-1z"/><path d="m27 61c2.414 0 4.434-1.721 4.899-4h-9.798c.465 2.279 2.485 4 4.899 4z"/><path d="m19 21c2.206 0 4 1.794 4 4h4v-3c-2.206 0-4-1.794-4-4s1.794-4 4-4v-5h-.681c-9.106 0-16.593 7.064-17.269 16h5.95c0-2.206 1.794-4 4-4z"/><path d="m20 47h7v-8c-2.206 0-4-1.794-4-4s1.794-4 4-4v-4h-6v-2c0-1.103-.897-2-2-2s-2 .897-2 2v2h-7.986c.191 4.958 2.478 9.564 6.338 12.723l4.648 3.803z"/><path d="m39 25c0-1.103-.897-2-2-2s-2 .897-2 2v2h-6v6h-2c-1.103 0-2 .897-2 2s.897 2 2 2h2v10h5v-3.474l4.648-3.803c3.86-3.159 6.146-7.765 6.338-12.723h-5.986z"/><path d="m33 53h-12c-.552 0-1 .449-1 1s.448 1 1 1h12c.552 0 1-.449 1-1s-.448-1-1-1z"/><path d="m35 49h-16c-.552 0-1 .449-1 1s.448 1 1 1h2 12 2c.552 0 1-.449 1-1s-.448-1-1-1z"/></g></svg>