<svg xmlns="http://www.w3.org/2000/svg" height="512" viewBox="0 0 64 64" width="512" xmlns:v="https://vecta.io/nano"><path d="M54 3H40a1 1 0 0 0-1 1v4h-2c-1.103 0-2 .897-2 2s.897 2 2 2h2v5h4c0-2.206 1.794-4 4-4s4 1.794 4 4h3a1 1 0 0 0 1-1V4a1 1 0 0 0-1-1zM27 61a5.01 5.01 0 0 0 4.899-4h-9.798A5.01 5.01 0 0 0 27 61zm-8-40c2.206 0 4 1.794 4 4h4v-3c-2.206 0-4-1.794-4-4s1.794-4 4-4V9h-.681C17.213 9 9.726 16.064 9.05 25H15c0-2.206 1.794-4 4-4zm1 26h7v-8c-2.206 0-4-1.794-4-4s1.794-4 4-4v-4h-6v-2c0-1.103-.897-2-2-2s-2 .897-2 2v2H9.014c.191 4.958 2.478 9.564 6.338 12.723L20 43.526zm19-22c0-1.103-.897-2-2-2s-2 .897-2 2v2h-6v6h-2c-1.103 0-2 .897-2 2s.897 2 2 2h2v10h5v-3.474l4.648-3.803A17.25 17.25 0 0 0 44.986 27H39zm-6 28H21a1 1 0 1 0 0 2h12a1 1 0 1 0 0-2zm2-4H19a1 1 0 1 0 0 2h2 12 2a1 1 0 1 0 0-2z"/></svg>