<svg xmlns="http://www.w3.org/2000/svg" height="512" width="512" xmlns:v="https://vecta.io/nano"><path d="M386.361 55.959c3.29 0 6.308-2.182 7.225-5.506a7.5 7.5 0 0 0-5.234-9.225c-12.703-3.506-27.56-5.684-44.157-6.472-4.151-.207-7.651 2.998-7.848 7.136s2.999 7.651 7.136 7.848c28.756 1.364 39.695 6.219 42.878 6.219zm-42.878 23.445c28.756 1.365 39.695 6.22 42.878 6.22 3.29 0 6.308-2.182 7.225-5.506a7.5 7.5 0 0 0-5.234-9.225c-12.703-3.506-27.56-5.684-44.157-6.472-4.151-.198-7.651 2.999-7.848 7.136s2.999 7.65 7.136 7.847z"/><path d="M343.483 112.093c28.76 1.367 39.694 6.22 42.878 6.22 3.29 0 6.308-2.182 7.225-5.506a7.5 7.5 0 0 0-5.234-9.225c-12.7-3.505-27.557-5.683-44.157-6.472-4.151-.199-7.651 2.999-7.848 7.136a7.5 7.5 0 0 0 7.136 7.847zm135.914-77.337c-16.598.789-31.454 2.966-44.158 6.472a7.5 7.5 0 0 0-5.234 9.225c.917 3.325 3.936 5.506 7.225 5.506 3.238 0 14.225-4.86 42.878-6.22 4.137-.197 7.332-3.71 7.136-7.848s-3.707-7.319-7.847-7.135zm0 29.664c-16.598.789-31.454 2.966-44.158 6.472a7.5 7.5 0 0 0-5.234 9.225c.917 3.325 3.936 5.506 7.225 5.506 3.238 0 14.225-4.86 42.878-6.22 4.137-.197 7.332-3.71 7.136-7.848s-3.707-7.322-7.847-7.135zm-23.878 34.963c-7.256 1.075-14.079 2.487-20.279 4.198-3.993 1.102-6.336 5.232-5.235 9.225.918 3.325 3.936 5.507 7.226 5.507 2.659 0 5.793-1.915 20.487-4.092a7.5 7.5 0 1 0-2.199-14.838zm-92.647 368.491v-53.398c0-27.667-9.291-54.765-26.216-76.617v-26.601c0-14.351-11.676-26.028-26.028-26.028h-70.682c-11.196-8.019-9.566-20.258-9.706-20.888 4.442-2.659 8.721-5.772 12.813-9.37 13.346-11.731 21.818-28.494 23.841-46.794 10.023-1.171 17.811-9.798 17.768-20.185l-.059-27.174c-.01-2.25-.4-4.474-1.135-6.585.736-2.093 1.144-4.325 1.144-6.629V99.704c0-13.158-10.703-24.036-23.859-24.25-1.317-.021-2.365-1.07-2.386-2.387-.208-13.326-11.219-24.168-24.547-24.168h-75.635c-34.416 0-62.415 28-62.415 62.416v36.291c0 1.106.095 2.196.272 3.262-3.624 4.511-5.64 10.135-5.636 16.038l.012 16.428c.01 13.336 10.262 24.319 23.296 25.493 2.175 18.284 10.786 34.977 24.231 46.594 2.241 1.937 4.54 3.717 6.883 5.376-.348 1.905 2.458 15.72-9.706 24.434H64.439c-14.351 0-26.028 11.676-26.028 26.028v26.601c-16.925 21.851-26.216 48.951-26.216 76.617v53.397C5 471.913.125 479.613.125 488.435.126 501.429 10.697 512 23.691 512h327.685c12.994 0 23.565-10.572 23.565-23.566.001-8.821-4.874-16.521-12.069-20.56zm-26.216-101.718c7.305 14.97 11.216 31.522 11.216 48.32v50.393h-11.216zM110.769 111.314c0-26.145 21.27-47.416 47.416-47.416h75.635c5.185 0 9.469 4.217 9.549 9.401v.001a17.35 17.35 0 0 0 17.14 17.151 9.3 9.3 0 0 1 9.103 9.252v47.903c0 6.427-10.582 7.377-14.092.41-.007-.013-.013-.026-.02-.04-3.4-6.818-10.986-10.321-18.45-8.518-31.552 7.623-54.852-12.014-65.931-24.398-14.814-16.558-42.664-7.271-43.751 15.033-.066 1.363-.026.315-.007 26.862l-13.218-4.602a5.03 5.03 0 0 1-3.374-4.748zm17.421 89.924a7.5 7.5 0 0 0-7.497-7.309l-4.655.002c-5.855 0-10.616-4.758-10.62-10.608.064-17.053-.178-16.574.199-18.488 3.02 1.786 4.062 1.718 17.122 6.394 9.516 3.313 19.64-3.731 19.624-13.967l-.011-26.442c.429-8.798 11.655-12.391 17.589-5.757 11.193 12.512 32.892 31.154 62.782 31.153 5.662 0 11.62-.669 17.852-2.175.617-.15 1.229.104 1.495.615l.012.024c5.079 10.183 16.697 15.265 27.536 12.302l.046 21.061c.012 2.895-2.265 5.261-5.076 5.273l-4.764.02a7.5 7.5 0 0 0-7.467 7.372c-.287 16.852-7.287 32.525-19.205 43.001-25.543 22.453-60.142 22.19-85.399.364-12.005-10.374-19.135-25.986-19.563-42.835zm92.052 83.993h-65.416c2.772-4.876 4.471-10.354 4.892-16.043 17.25 7.403 36.776 8.61 55.835 2.027.638 4.961 2.248 9.722 4.689 14.016zM27.196 414.477c0-16.798 3.911-33.349 11.216-48.32V402.6a7.5 7.5 0 1 0 15 0v-91.341c0-6.081 4.947-11.028 11.028-11.028h246.189c6.081 0 11.028 4.947 11.028 11.028V464.87H53.412v-27.198a7.5 7.5 0 1 0-15 0v27.198H27.196zM351.376 497H23.691a8.58 8.58 0 0 1-8.565-8.566c0-4.794 3.941-8.565 8.565-8.565h327.685c4.614 0 8.565 3.762 8.565 8.566.001 4.723-3.841 8.565-8.565 8.565zm-163.842-69.365c21.438 0 38.88-17.441 38.88-38.879s-17.441-38.88-38.88-38.88-38.88 17.441-38.88 38.88 17.442 38.879 38.88 38.879zm0-62.759c13.167 0 23.88 10.712 23.88 23.88s-10.712 23.879-23.88 23.879-23.88-10.712-23.88-23.879 10.713-23.88 23.88-23.88zM496.751.035c-49.585-.755-75.703 11.018-84.63 16.111-.056.032-.125.045-.199.04h-.001c-.074-.005-.151-.029-.224-.071C402.77 11.032 376.665-.717 327.125.034c-8.342.126-15.129 7.021-15.129 15.37v26.843a7.5 7.5 0 1 0 15 0V15.404c0-.206.156-.369.355-.372 15.272-.227 53.337.687 76.923 14.118.053.03.108.055.161.085v118.622c-.066-.028-.135-.047-.201-.076-25.51-11.315-59.115-12.587-76.877-12.333-.217-.006-.361-.172-.361-.372V77.318a7.5 7.5 0 1 0-15 0v57.758c0 8.724 7.19 15.53 15.573 15.369 13.315-.183 46.835.513 70.583 11.047 8.759 3.885 18.918 3.796 27.838-.12 23.443-10.293 56.403-11.072 69.491-10.937 9.12.048 16.393-7.219 16.393-16.205V15.404c0-8.349-6.785-15.244-15.123-15.369zm.123 134.196c0 .635-.469 1.164-1.233 1.206-17.459-.188-50.507 1.148-75.681 12.202-.173.076-.351.129-.525.2V29.237c.039-.022.08-.04.119-.063 23.584-13.455 61.681-14.367 76.971-14.141.192.003.349.169.349.372z"/></svg>