<svg xmlns="http://www.w3.org/2000/svg" xmlns:xlink="http://www.w3.org/1999/xlink" height="512" width="512" xmlns:v="https://vecta.io/nano"><use xlink:href="#B"/><use xlink:href="#B" x="-37.077"/><use xlink:href="#B" x="-74.154"/><path d="M123.925 51.273l-76.763-.057c-4.145 0-7.502 3.354-7.505 7.494a7.5 7.5 0 0 0 7.495 7.506l76.763.057h.005a7.5 7.5 0 0 0 7.5-7.494c.002-4.142-3.353-7.503-7.495-7.506zm163.582 73.59H176.445c-6.933 0-12.574 5.641-12.574 12.574v33.479c0 6.948 5.641 12.602 12.574 12.602h111.062c6.933 0 12.574-5.653 12.574-12.602v-33.479c0-6.933-5.641-12.574-12.574-12.574zm-2.426 43.655H178.872v-28.654h106.209zm7.5 41.699H171.372a7.5 7.5 0 1 0 0 15h121.209a7.5 7.5 0 1 0 0-15zm-102.699 35.519h-18.51a7.5 7.5 0 1 0 0 15h18.51a7.5 7.5 0 1 0 0-15zm102.699 0h-62.05a7.5 7.5 0 1 0 0 15h62.05a7.5 7.5 0 1 0 0-15zm152.221 205.008h-.255a7.5 7.5 0 1 0 0 15h.255a7.5 7.5 0 1 0 0-15zm45.865-148.994h-59.114V172.701c0-11.669-9.494-21.163-21.163-21.163h-71.7V36.946c0-11.404-9.278-20.682-20.682-20.682H20.681C9.277 16.265 0 25.542 0 36.946v241.718c0 11.419 9.277 20.709 20.681 20.709h33.801v97.131c0 11.669 9.494 21.163 21.163 21.163h104.223l-8.866 29.646h-14.994c-13.342 0-24.196 10.867-24.196 24.226v11.707c0 6.887 5.603 12.489 12.489 12.489h197.434c6.887 0 12.489-5.603 12.489-12.489v-11.707c0-13.358-10.867-24.226-24.225-24.226h-14.991l-8.847-29.646h71.443v56.735c0 11.763 9.557 21.333 21.305 21.333h91.758c11.763 0 21.333-9.57 21.333-21.333V323.056c0-11.748-9.57-21.306-21.333-21.306zM15 278.664V101.226h137.039a7.5 7.5 0 1 0 0-15H15v-49.28a5.69 5.69 0 0 1 5.681-5.682h297.327a5.69 5.69 0 0 1 5.682 5.682v49.279H186.679a7.5 7.5 0 1 0 0 15H323.69v177.438c0 3.147-2.549 5.709-5.682 5.709H20.681c-3.133.001-5.681-2.56-5.681-5.708zm303.008 20.709c11.404 0 20.682-9.29 20.682-20.709V166.538h71.7c3.398 0 6.163 2.765 6.163 6.163V301.75h-17.644c-11.748 0-21.305 9.558-21.305 21.306v41.683H69.482v-65.365h248.526zm21.215 172.166v9.196H146.812v-9.196c0-5.087 4.125-9.226 9.196-9.226h173.991a9.24 9.24 0 0 1 9.224 9.226zm-79.014-68.872a7.5 7.5 0 1 0 0 15h30.298l8.847 29.646H186.658l8.866-29.646h30.188a7.5 7.5 0 1 0 0-15H75.645c-3.398 0-6.163-2.765-6.163-6.163v-16.766h308.123v22.929zM497 474.402a6.34 6.34 0 0 1-6.333 6.333h-91.758c-3.477 0-6.305-2.841-6.305-6.333V323.056c0-3.477 2.828-6.306 6.305-6.306h91.758c3.492 0 6.333 2.829 6.333 6.306zM127.661 124.863H51.21c-6.949 0-12.603 5.641-12.603 12.574v110.696a12.62 12.62 0 0 0 12.603 12.603h76.451a12.62 12.62 0 0 0 12.602-12.603V137.438c0-6.934-5.653-12.575-12.602-12.575zm-2.398 120.873H53.608V139.863h71.655z"/><defs ><path id="B" d="M291.532 66.273a7.5 7.5 0 0 0 7.5-7.5v-.057c0-4.143-3.358-7.472-7.5-7.472s-7.5 3.386-7.5 7.528 3.358 7.501 7.5 7.501z"/></defs></svg>