<svg xmlns="http://www.w3.org/2000/svg" viewBox="0 0 112.23 148.23"><defs><style>.cls-1{fill:#fff;}.cls-2{fill:none;}</style></defs><title>svgAsset 1uiux</title><g id="Layer_2" data-name="Layer 2"><g id="Layer_1-2" data-name="Layer 1"><path class="cls-1" d="M43.31,110.12h-3V99.35A10.43,10.43,0,0,1,50.73,88.92H68.88v3H50.73a7.43,7.43,0,0,0-7.42,7.43Z"/><rect class="cls-1" x="29.86" y="108.62" width="37.79" height="3"/><path class="cls-2" d="M66.15,108.88a7.66,7.66,0,0,1,7.66-7.65H84.92V98.38H73.81a7.65,7.65,0,1,1,0-15.3H84.92V9.5A6.51,6.51,0,0,0,78.42,3H9.5A6.51,6.51,0,0,0,3,9.5V138.73a6.51,6.51,0,0,0,6.5,6.5H78.42a6.51,6.51,0,0,0,6.5-6.5V116.54H73.81A7.67,7.67,0,0,1,66.15,108.88Z"/><rect x="84.92" y="98.38" width="3" height="2.85"/><path d="M84.92,138.73a6.51,6.51,0,0,1-6.5,6.5H9.5a6.51,6.51,0,0,1-6.5-6.5V9.5A6.51,6.51,0,0,1,9.5,3H78.42a6.51,6.51,0,0,1,6.5,6.5V83.08h3V9.5A9.51,9.51,0,0,0,78.42,0H9.5A9.51,9.51,0,0,0,0,9.5V138.73a9.51,9.51,0,0,0,9.5,9.5H78.42a9.51,9.51,0,0,0,9.5-9.5V116.54h-3Z" class="cls-1"/><path class="cls-1" d="M66.15,90.73a7.66,7.66,0,0,0,7.66,7.65H84.92v-3H73.81a4.65,4.65,0,1,1,0-9.3H84.92v-3H73.81A7.66,7.66,0,0,0,66.15,90.73Z"/><path class="cls-1" d="M104.58,86.08a4.65,4.65,0,0,1,0,9.3H87.92v3h16.66a7.65,7.65,0,0,0,0-15.3H87.92v3Z"/><rect class="cls-1" x="84.92" y="83.08" width="3" height="3"/><rect class="cls-1" x="84.92" y="95.38" width="3" height="3"/><path class="cls-1" d="M69.15,108.88a4.66,4.66,0,0,1,4.66-4.65H84.92v-3H73.81a7.66,7.66,0,1,0,0,15.31H84.92v-3H73.81A4.66,4.66,0,0,1,69.15,108.88Z"/><path class="cls-1" d="M104.58,101.23H87.92v3h16.66a4.66,4.66,0,0,1,0,9.31H87.92v3h16.66a7.66,7.66,0,0,0,0-15.31Z"/><rect class="cls-1" x="84.92" y="113.54" width="3" height="3"/><rect class="cls-1" x="84.92" y="101.23" width="3" height="3"/><path class="cls-1" d="M25.55,116.54H13.14a5.46,5.46,0,0,1-5.45-5.45v-2.87a5.46,5.46,0,0,1,5.45-5.45H25.55A5.46,5.46,0,0,1,31,108.22v2.87A5.46,5.46,0,0,1,25.55,116.54ZM13.14,105.77a2.45,2.45,0,0,0-2.45,2.45v2.87a2.45,2.45,0,0,0,2.45,2.45H25.55A2.45,2.45,0,0,0,28,111.09v-2.87a2.45,2.45,0,0,0-2.45-2.45Z"/><path class="cls-1" d="M66.72,135.62H44.9a6.45,6.45,0,0,1-6.44-6.44v-.9a6.44,6.44,0,0,1,6.44-6.43H66.72a6.43,6.43,0,0,1,6.43,6.43v.9A6.44,6.44,0,0,1,66.72,135.62ZM44.9,124.85a3.44,3.44,0,0,0-3.44,3.43v.9a3.45,3.45,0,0,0,3.44,3.44H66.72a3.44,3.44,0,0,0,3.43-3.44v-.9a3.44,3.44,0,0,0-3.43-3.43Z"/><path class="cls-1" d="M40,130.23H27.22a10.92,10.92,0,0,1-10.91-10.91V115h3v4.28a7.92,7.92,0,0,0,7.91,7.91H40Z"/><path class="cls-1" d="M59.42,15.15H27.27a8,8,0,0,1-8-8V0H68.85V5.73A9.43,9.43,0,0,1,59.42,15.15ZM22.23,3V7.12a5,5,0,0,0,5,5H59.42a6.44,6.44,0,0,0,6.43-6.42V3Z"/><path class="cls-1" d="M24.88,58.19a3.62,3.62,0,0,0,1.36-.25,2.93,2.93,0,0,0,1-.71,3.35,3.35,0,0,0,.63-1.11,4.43,4.43,0,0,0,.22-1.46V46.25h2.61v8.41a6.46,6.46,0,0,1-.4,2.32,5.12,5.12,0,0,1-3,3,7.08,7.08,0,0,1-4.86,0,5.3,5.3,0,0,1-1.83-1.2A5.38,5.38,0,0,1,19.46,57a6.69,6.69,0,0,1-.4-2.32V46.25h2.62v8.4a4.72,4.72,0,0,0,.21,1.46,3.35,3.35,0,0,0,.63,1.11,2.74,2.74,0,0,0,1,.72A3.61,3.61,0,0,0,24.88,58.19Z"/><path class="cls-1" d="M36.32,60.3H33.7v-14h2.62Z"/><path class="cls-1" d="M40.18,60.33a1.47,1.47,0,0,1-.22.39,1.35,1.35,0,0,1-.32.27,1.24,1.24,0,0,1-.37.17,1.19,1.19,0,0,1-.37.06h-1L43.56,46.7a1.32,1.32,0,0,1,.48-.62,1.21,1.21,0,0,1,.75-.22h1Z"/><path class="cls-1" d="M52.66,58.19A3.61,3.61,0,0,0,54,57.94a2.84,2.84,0,0,0,1-.71,3,3,0,0,0,.63-1.11,4.43,4.43,0,0,0,.22-1.46V46.25h2.62v8.41A6.46,6.46,0,0,1,58.08,57a5.1,5.1,0,0,1-1.16,1.84A5.3,5.3,0,0,1,55.09,60a7.08,7.08,0,0,1-4.86,0,5.3,5.3,0,0,1-1.83-1.2A5.24,5.24,0,0,1,47.24,57a6.46,6.46,0,0,1-.4-2.32V46.25h2.61v8.4a4.43,4.43,0,0,0,.22,1.46,3,3,0,0,0,.63,1.11,2.7,2.7,0,0,0,1,.72A3.62,3.62,0,0,0,52.66,58.19Z"/><path class="cls-1" d="M64.52,53.07,60,46.25h2.61a.77.77,0,0,1,.39.07.74.74,0,0,1,.22.24l3.2,5.16a1.86,1.86,0,0,1,.1-.25l.14-.25,2.92-4.62a.65.65,0,0,1,.56-.35h2.51L68.16,53l4.65,7.34H70.2a.61.61,0,0,1-.42-.14,1.14,1.14,0,0,1-.27-.31l-3.26-5.38a2,2,0,0,1-.08.22,1.74,1.74,0,0,0-.1.19l-3.12,5a1.86,1.86,0,0,1-.26.31.6.6,0,0,1-.39.14H59.85Z"/></g></g></svg>