<svg xmlns="http://www.w3.org/2000/svg" viewBox="0 0 112.23 148.23" xmlns:v="https://vecta.io/nano"><g fill="#fff"><path d="M43.31,110.12h-3V99.35A10.43,10.43,0,0,1,50.73,88.92H68.88v3H50.73a7.43,7.43,0,0,0-7.42,7.43Z"/><path d="M29.86 108.62h37.79v3H29.86z"/></g><path d="M84.92 98.38h3v2.85h-3z"/><g fill="#fff"><path d="M84.92,138.73a6.51,6.51,0,0,1-6.5,6.5H9.5a6.51,6.51,0,0,1-6.5-6.5V9.5A6.51,6.51,0,0,1,9.5,3H78.42a6.51,6.51,0,0,1,6.5,6.5V83.08h3V9.5A9.51,9.51,0,0,0,78.42,0H9.5A9.51,9.51,0,0,0,0,9.5V138.73a9.51,9.51,0,0,0,9.5,9.5H78.42a9.51,9.51,0,0,0,9.5-9.5V116.54h-3Z"/><path d="M66.15 90.73a7.66 7.66 0 0 0 7.66 7.65h11.11v-3H73.81a4.65 4.65 0 1 1 0-9.3h11.11v-3H73.81a7.66 7.66 0 0 0-7.66 7.65zm38.43-4.65a4.65 4.65 0 0 1 0 9.3H87.92v3h16.66a7.65 7.65 0 0 0 0-15.3H87.92v3z"/><path d="M84.92 83.08h3v3h-3zm0 12.3h3v3h-3zm-15.77 13.5a4.66 4.66 0 0 1 4.66-4.65h11.11v-3H73.81a7.66 7.66 0 1 0 0 15.31h11.11v-3H73.81a4.66 4.66 0 0 1-4.66-4.66zm35.43-7.65H87.92v3h16.66a4.66 4.66 0 0 1 0 9.31H87.92v3h16.66a7.66 7.66 0 0 0 0-15.31z"/><path d="M84.92 113.54h3v3h-3zm0-12.31h3v3h-3zm-59.37 15.31H13.14a5.46 5.46 0 0 1-5.45-5.45v-2.87a5.46 5.46 0 0 1 5.45-5.45h12.41a5.46 5.46 0 0 1 5.45 5.45v2.87a5.46 5.46 0 0 1-5.45 5.45zm-12.41-10.77a2.45 2.45 0 0 0-2.45 2.45v2.87a2.45 2.45 0 0 0 2.45 2.45h12.41a2.45 2.45 0 0 0 2.45-2.45v-2.87a2.45 2.45 0 0 0-2.45-2.45zm53.58 29.85H44.9a6.45 6.45 0 0 1-6.44-6.44v-.9a6.44 6.44 0 0 1 6.44-6.43h21.82a6.43 6.43 0 0 1 6.43 6.43v.9a6.44 6.44 0 0 1-6.43 6.44zM44.9 124.85a3.44 3.44 0 0 0-3.44 3.43v.9a3.45 3.45 0 0 0 3.44 3.44h21.82a3.44 3.44 0 0 0 3.43-3.44v-.9a3.44 3.44 0 0 0-3.43-3.43z"/><path d="M40 130.23H27.22a10.92 10.92 0 0 1-10.91-10.91V115h3v4.28a7.92 7.92 0 0 0 7.91 7.91H40zM59.42 15.15H27.27a8 8 0 0 1-8-8V0h49.58v5.73a9.43 9.43 0 0 1-9.43 9.42zM22.23 3v4.12a5 5 0 0 0 5 5h32.19a6.44 6.44 0 0 0 6.43-6.42V3zm2.65 55.19a3.62 3.62 0 0 0 1.36-.25 2.93 2.93 0 0 0 1-.71 3.35 3.35 0 0 0 .63-1.11 4.43 4.43 0 0 0 .22-1.46v-8.41h2.61v8.41a6.46 6.46 0 0 1-.4 2.32 5.12 5.12 0 0 1-3 3 7.08 7.08 0 0 1-4.86 0 5.3 5.3 0 0 1-1.83-1.2A5.38 5.38 0 0 1 19.46 57a6.69 6.69 0 0 1-.4-2.32v-8.43h2.62v8.4a4.72 4.72 0 0 0 .21 1.46 3.35 3.35 0 0 0 .63 1.11 2.74 2.74 0 0 0 1 .72 3.61 3.61 0 0 0 1.36.25zm11.44 2.11H33.7v-14h2.62zm3.86.03a1.47 1.47 0 0 1-.22.39 1.35 1.35 0 0 1-.32.27 1.24 1.24 0 0 1-.37.17 1.19 1.19 0 0 1-.37.06h-1l5.66-14.52a1.32 1.32 0 0 1 .48-.62 1.21 1.21 0 0 1 .75-.22h1zm12.48-2.14a3.61 3.61 0 0 0 1.34-.25 2.84 2.84 0 0 0 1-.71 3 3 0 0 0 .63-1.11 4.43 4.43 0 0 0 .22-1.46v-8.41h2.62v8.41a6.46 6.46 0 0 1-.39 2.34 5.1 5.1 0 0 1-1.16 1.84A5.3 5.3 0 0 1 55.09 60a7.08 7.08 0 0 1-4.86 0 5.3 5.3 0 0 1-1.83-1.2 5.24 5.24 0 0 1-1.16-1.8 6.46 6.46 0 0 1-.4-2.32v-8.43h2.61v8.4a4.43 4.43 0 0 0 .22 1.46 3 3 0 0 0 .63 1.11 2.7 2.7 0 0 0 1 .72 3.62 3.62 0 0 0 1.36.25zm11.86-5.12L60 46.25h2.61a.77.77 0 0 1 .39.07.74.74 0 0 1 .22.24l3.2 5.16a1.86 1.86 0 0 1 .1-.25l.14-.25 2.92-4.62a.65.65 0 0 1 .56-.35h2.51L68.16 53l4.65 7.34H70.2a.61.61 0 0 1-.42-.14 1.14 1.14 0 0 1-.27-.31l-3.26-5.38a2 2 0 0 1-.08.22 1.74 1.74 0 0 0-.1.19l-3.12 5a1.86 1.86 0 0 1-.26.31.6.6 0 0 1-.39.14h-2.45z"/></g></svg>